<svg xmlns="http://www.w3.org/2000/svg" width="500" height="500">
<path d="M 346,171 L 345,172 L 342,172 L 341,173 L 339,173 L 338,174 L 337,174 L 336,175 L 335,175 L 334,176 L 333,176 L 330,179 L 329,179 L 323,185 L 323,186 L 321,188 L 321,189 L 319,191 L 319,192 L 318,193 L 318,195 L 317,196 L 317,197 L 316,198 L 316,202 L 315,203 L 315,217 L 316,218 L 316,221 L 317,222 L 317,224 L 318,225 L 318,226 L 319,227 L 319,228 L 321,230 L 321,231 L 323,233 L 323,234 L 329,240 L 330,240 L 332,242 L 333,242 L 335,244 L 336,244 L 337,245 L 339,245 L 340,246 L 342,246 L 343,247 L 345,247 L 346,248 L 359,248 L 360,247 L 363,247 L 364,246 L 366,246 L 367,245 L 368,245 L 369,244 L 370,244 L 371,243 L 372,243 L 373,242 L 374,242 L 385,231 L 385,230 L 386,229 L 386,228 L 387,227 L 387,226 L 388,225 L 388,224 L 389,223 L 389,221 L 390,220 L 390,217 L 391,216 L 391,202 L 390,201 L 390,198 L 389,197 L 389,196 L 388,195 L 388,193 L 387,192 L 387,191 L 385,189 L 385,188 L 383,186 L 383,185 L 376,178 L 375,178 L 373,176 L 372,176 L 371,175 L 370,175 L 369,174 L 368,174 L 367,173 L 365,173 L 364,172 L 362,172 L 361,171 Z" fill="black" />
<path d="M 139,171 L 138,172 L 136,172 L 135,173 L 133,173 L 132,174 L 131,174 L 130,175 L 129,175 L 128,176 L 127,176 L 126,177 L 125,177 L 116,186 L 116,187 L 114,189 L 114,190 L 113,191 L 113,192 L 112,193 L 112,194 L 111,195 L 111,197 L 110,198 L 110,200 L 109,201 L 109,217 L 110,218 L 110,221 L 111,222 L 111,224 L 112,225 L 112,226 L 113,227 L 113,228 L 114,229 L 114,230 L 116,232 L 116,233 L 124,241 L 125,241 L 127,243 L 128,243 L 129,244 L 130,244 L 131,245 L 132,245 L 133,246 L 135,246 L 136,247 L 139,247 L 140,248 L 153,248 L 154,247 L 157,247 L 158,246 L 160,246 L 161,245 L 162,245 L 163,244 L 164,244 L 165,243 L 166,243 L 168,241 L 169,241 L 178,232 L 178,231 L 180,229 L 180,228 L 181,227 L 181,226 L 182,225 L 182,223 L 183,222 L 183,220 L 184,219 L 184,215 L 185,214 L 185,204 L 184,203 L 184,199 L 183,198 L 183,196 L 182,195 L 182,194 L 181,193 L 181,192 L 180,191 L 180,190 L 178,188 L 178,187 L 175,184 L 175,183 L 172,180 L 171,180 L 168,177 L 167,177 L 165,175 L 164,175 L 163,174 L 162,174 L 161,173 L 159,173 L 158,172 L 155,172 L 154,171 Z" fill="black" />
<path d="M 243,132 L 242,133 L 239,133 L 238,134 L 236,134 L 235,135 L 233,135 L 232,136 L 231,136 L 230,137 L 229,137 L 227,139 L 226,139 L 216,149 L 216,150 L 213,153 L 213,154 L 212,155 L 212,156 L 211,157 L 211,158 L 210,159 L 210,161 L 209,162 L 209,164 L 208,165 L 208,168 L 207,169 L 207,185 L 208,186 L 208,189 L 209,190 L 209,192 L 210,193 L 210,194 L 211,195 L 211,196 L 212,197 L 212,198 L 213,199 L 213,200 L 215,202 L 215,203 L 224,212 L 225,212 L 227,214 L 228,214 L 230,216 L 231,216 L 232,217 L 234,217 L 235,218 L 237,218 L 238,219 L 241,219 L 242,220 L 258,220 L 259,219 L 262,219 L 263,218 L 265,218 L 266,217 L 267,217 L 268,216 L 269,216 L 270,215 L 271,215 L 273,213 L 274,213 L 276,211 L 277,211 L 284,204 L 284,203 L 286,201 L 286,200 L 287,199 L 287,198 L 289,196 L 289,194 L 290,193 L 290,192 L 291,191 L 291,189 L 292,188 L 292,185 L 293,184 L 293,169 L 292,168 L 292,165 L 291,164 L 291,162 L 290,161 L 290,159 L 289,158 L 289,157 L 288,156 L 288,155 L 287,154 L 287,153 L 285,151 L 285,150 L 282,147 L 282,146 L 279,143 L 278,143 L 274,139 L 273,139 L 271,137 L 270,137 L 269,136 L 268,136 L 267,135 L 265,135 L 264,134 L 262,134 L 261,133 L 258,133 L 257,132 Z" fill="black" />
<path d="M 234,25 L 233,26 L 223,26 L 222,27 L 214,27 L 213,28 L 208,28 L 207,29 L 203,29 L 202,30 L 198,30 L 197,31 L 195,31 L 194,32 L 190,32 L 189,33 L 187,33 L 186,34 L 184,34 L 183,35 L 181,35 L 180,36 L 177,36 L 176,37 L 174,37 L 173,38 L 172,38 L 171,39 L 169,39 L 168,40 L 166,40 L 165,41 L 164,41 L 163,42 L 162,42 L 161,43 L 159,43 L 158,44 L 157,44 L 156,45 L 155,45 L 154,46 L 152,46 L 151,47 L 150,47 L 149,48 L 148,48 L 147,49 L 146,49 L 145,50 L 144,50 L 143,51 L 142,51 L 141,52 L 140,52 L 138,54 L 137,54 L 136,55 L 135,55 L 134,56 L 133,56 L 131,58 L 130,58 L 129,59 L 128,59 L 126,61 L 125,61 L 123,63 L 122,63 L 119,66 L 118,66 L 116,68 L 115,68 L 112,71 L 111,71 L 107,75 L 106,75 L 102,79 L 101,79 L 80,100 L 80,101 L 75,106 L 75,107 L 71,111 L 71,112 L 68,115 L 68,116 L 66,118 L 66,119 L 64,121 L 64,122 L 62,124 L 62,125 L 60,127 L 60,128 L 58,130 L 58,131 L 57,132 L 57,133 L 55,135 L 55,136 L 54,137 L 54,138 L 53,139 L 53,140 L 52,141 L 52,142 L 51,143 L 51,144 L 50,145 L 50,146 L 48,148 L 48,150 L 47,151 L 47,152 L 46,153 L 46,154 L 45,155 L 45,156 L 44,157 L 44,158 L 43,159 L 43,161 L 42,162 L 42,163 L 41,164 L 41,166 L 40,167 L 40,168 L 39,169 L 39,171 L 38,172 L 38,174 L 37,175 L 37,177 L 36,178 L 36,180 L 35,181 L 35,184 L 34,185 L 34,187 L 33,188 L 33,191 L 32,192 L 32,195 L 31,196 L 31,200 L 30,201 L 30,205 L 29,206 L 29,211 L 28,212 L 28,218 L 27,219 L 27,229 L 26,230 L 26,267 L 27,268 L 27,277 L 28,278 L 28,285 L 29,286 L 29,290 L 30,291 L 30,295 L 31,296 L 31,300 L 32,301 L 32,304 L 33,305 L 33,308 L 34,309 L 34,312 L 35,313 L 35,315 L 36,316 L 36,318 L 37,319 L 37,321 L 38,322 L 38,324 L 39,325 L 39,327 L 40,328 L 40,330 L 41,331 L 41,332 L 42,333 L 42,335 L 43,336 L 43,337 L 44,338 L 44,339 L 45,340 L 45,342 L 46,343 L 46,344 L 47,345 L 47,346 L 48,347 L 48,348 L 49,349 L 49,350 L 50,351 L 50,352 L 51,353 L 51,354 L 52,355 L 52,356 L 53,357 L 53,358 L 54,359 L 54,360 L 55,361 L 55,362 L 57,364 L 57,365 L 58,366 L 58,367 L 60,369 L 60,370 L 61,371 L 61,372 L 63,374 L 63,375 L 65,377 L 65,378 L 67,380 L 67,381 L 69,383 L 69,384 L 72,387 L 72,388 L 76,392 L 76,393 L 81,398 L 81,399 L 100,418 L 101,418 L 107,424 L 108,424 L 112,428 L 113,428 L 116,431 L 117,431 L 120,434 L 121,434 L 123,436 L 124,436 L 126,438 L 127,438 L 129,440 L 130,440 L 131,441 L 132,441 L 134,443 L 135,443 L 136,444 L 137,444 L 139,446 L 140,446 L 141,447 L 142,447 L 143,448 L 144,448 L 145,449 L 146,449 L 147,450 L 148,450 L 150,452 L 151,452 L 152,453 L 154,453 L 155,454 L 156,454 L 157,455 L 158,455 L 159,456 L 160,456 L 161,457 L 162,457 L 163,458 L 165,458 L 166,459 L 167,459 L 168,460 L 170,460 L 171,461 L 172,461 L 173,462 L 175,462 L 176,463 L 178,463 L 179,464 L 181,464 L 182,465 L 184,465 L 185,466 L 188,466 L 189,467 L 191,467 L 192,468 L 194,468 L 195,469 L 198,469 L 199,470 L 203,470 L 204,471 L 207,471 L 208,472 L 213,472 L 214,473 L 219,473 L 220,474 L 228,474 L 229,475 L 270,475 L 271,474 L 278,474 L 279,473 L 286,473 L 287,472 L 292,472 L 293,471 L 296,471 L 297,470 L 301,470 L 302,469 L 305,469 L 306,468 L 308,468 L 309,467 L 312,467 L 313,466 L 315,466 L 316,465 L 318,465 L 319,464 L 321,464 L 322,463 L 324,463 L 325,462 L 327,462 L 328,461 L 329,461 L 330,460 L 332,460 L 333,459 L 334,459 L 335,458 L 337,458 L 338,457 L 339,457 L 340,456 L 341,456 L 342,455 L 343,455 L 344,454 L 345,454 L 346,453 L 347,453 L 348,452 L 350,452 L 352,450 L 353,450 L 354,449 L 355,449 L 356,448 L 357,448 L 358,447 L 359,447 L 360,446 L 361,446 L 363,444 L 364,444 L 365,443 L 366,443 L 368,441 L 369,441 L 371,439 L 372,439 L 374,437 L 375,437 L 378,434 L 379,434 L 381,432 L 382,432 L 385,429 L 386,429 L 390,425 L 391,425 L 397,419 L 398,419 L 415,402 L 415,401 L 421,395 L 421,394 L 425,390 L 425,389 L 428,386 L 428,385 L 431,382 L 431,381 L 433,379 L 433,378 L 435,376 L 435,375 L 437,373 L 437,372 L 438,371 L 438,370 L 440,368 L 440,367 L 442,365 L 442,364 L 443,363 L 443,362 L 444,361 L 444,360 L 445,359 L 445,358 L 446,357 L 446,356 L 447,355 L 447,354 L 449,352 L 449,351 L 450,350 L 450,348 L 451,347 L 451,346 L 452,345 L 452,344 L 453,343 L 453,342 L 454,341 L 454,340 L 455,339 L 455,337 L 456,336 L 456,335 L 457,334 L 457,333 L 458,332 L 458,330 L 459,329 L 459,327 L 460,326 L 460,325 L 461,324 L 461,322 L 462,321 L 462,319 L 463,318 L 463,315 L 464,314 L 464,312 L 465,311 L 465,308 L 466,307 L 466,304 L 467,303 L 467,301 L 468,300 L 468,296 L 469,295 L 469,291 L 470,290 L 470,286 L 471,285 L 471,278 L 472,277 L 472,270 L 473,269 L 473,225 L 472,224 L 472,217 L 471,216 L 471,210 L 470,209 L 470,205 L 469,204 L 469,200 L 468,199 L 468,196 L 467,195 L 467,192 L 466,191 L 466,188 L 465,187 L 465,185 L 464,184 L 464,182 L 463,181 L 463,179 L 462,178 L 462,176 L 461,175 L 460,175 L 459,176 L 458,176 L 457,177 L 456,177 L 455,178 L 454,178 L 453,179 L 452,179 L 451,180 L 450,180 L 449,181 L 447,181 L 446,182 L 445,182 L 444,183 L 443,183 L 442,184 L 441,184 L 440,185 L 439,185 L 438,186 L 437,186 L 438,187 L 438,189 L 439,190 L 439,192 L 440,193 L 440,196 L 441,197 L 441,200 L 442,201 L 442,205 L 443,206 L 443,210 L 444,211 L 444,216 L 445,217 L 445,225 L 446,226 L 446,266 L 445,267 L 445,275 L 444,276 L 444,283 L 443,284 L 443,288 L 442,289 L 442,293 L 441,294 L 441,297 L 440,298 L 440,301 L 439,302 L 439,304 L 438,305 L 438,308 L 437,309 L 437,311 L 436,312 L 436,314 L 435,315 L 435,317 L 434,318 L 434,319 L 433,320 L 433,322 L 432,323 L 432,324 L 431,325 L 431,327 L 430,328 L 430,329 L 429,330 L 429,331 L 428,332 L 428,333 L 427,334 L 427,336 L 426,337 L 426,338 L 425,339 L 425,340 L 423,342 L 423,343 L 422,344 L 422,345 L 421,346 L 421,347 L 420,348 L 420,349 L 418,351 L 418,352 L 417,353 L 417,354 L 415,356 L 414,355 L 414,354 L 415,353 L 415,304 L 414,303 L 414,297 L 413,296 L 413,294 L 412,293 L 412,291 L 411,290 L 411,289 L 410,288 L 410,286 L 408,284 L 408,283 L 406,281 L 406,280 L 396,270 L 395,270 L 393,268 L 392,268 L 390,266 L 389,266 L 388,265 L 387,265 L 386,264 L 385,264 L 384,263 L 382,263 L 381,262 L 379,262 L 378,261 L 375,261 L 374,260 L 370,260 L 369,259 L 363,259 L 362,258 L 346,258 L 345,259 L 338,259 L 337,260 L 333,260 L 332,261 L 330,261 L 329,262 L 327,262 L 327,263 L 328,264 L 328,266 L 329,267 L 329,268 L 330,269 L 330,271 L 331,272 L 331,275 L 332,276 L 332,279 L 333,280 L 333,288 L 334,289 L 334,366 L 333,367 L 333,374 L 332,375 L 332,377 L 331,378 L 331,380 L 330,381 L 330,382 L 329,383 L 329,384 L 328,385 L 328,386 L 325,389 L 325,390 L 322,393 L 321,393 L 319,395 L 318,395 L 316,397 L 314,397 L 313,398 L 311,398 L 310,399 L 309,399 L 309,437 L 308,438 L 307,438 L 306,439 L 303,439 L 302,440 L 300,440 L 299,441 L 297,441 L 296,440 L 296,389 L 297,388 L 308,388 L 309,387 L 310,387 L 311,386 L 312,386 L 317,381 L 317,380 L 318,379 L 318,378 L 319,377 L 319,375 L 320,374 L 320,371 L 321,370 L 321,284 L 320,283 L 320,278 L 319,277 L 319,275 L 318,274 L 318,272 L 317,271 L 317,269 L 316,268 L 316,267 L 315,266 L 315,265 L 314,264 L 314,263 L 312,261 L 312,260 L 309,257 L 309,256 L 302,249 L 301,249 L 298,246 L 297,246 L 295,244 L 294,244 L 292,242 L 291,242 L 290,241 L 289,241 L 288,240 L 287,240 L 286,239 L 284,239 L 283,238 L 281,238 L 280,237 L 276,237 L 275,236 L 271,236 L 270,235 L 264,235 L 263,234 L 234,234 L 233,235 L 228,235 L 227,236 L 223,236 L 222,237 L 220,237 L 219,238 L 217,238 L 216,239 L 214,239 L 213,240 L 212,240 L 211,241 L 210,241 L 209,242 L 208,242 L 207,243 L 206,243 L 204,245 L 203,245 L 201,247 L 200,247 L 189,258 L 189,259 L 186,262 L 186,263 L 185,264 L 185,265 L 184,266 L 184,267 L 183,268 L 183,269 L 182,270 L 182,272 L 181,273 L 181,276 L 180,277 L 180,281 L 179,282 L 179,373 L 180,374 L 180,376 L 181,377 L 181,378 L 182,379 L 182,380 L 184,382 L 184,383 L 185,384 L 186,384 L 188,386 L 189,386 L 190,387 L 191,387 L 192,388 L 203,388 L 204,389 L 204,410 L 203,411 L 203,440 L 202,441 L 201,441 L 200,440 L 198,440 L 197,439 L 195,439 L 194,438 L 192,438 L 190,436 L 191,435 L 191,399 L 190,399 L 189,398 L 187,398 L 186,397 L 184,397 L 182,395 L 181,395 L 179,393 L 178,393 L 175,390 L 175,389 L 172,386 L 172,385 L 171,384 L 171,383 L 170,382 L 170,381 L 169,380 L 169,378 L 168,377 L 168,374 L 167,373 L 167,282 L 168,281 L 168,276 L 169,275 L 169,272 L 170,271 L 170,269 L 171,268 L 171,266 L 172,265 L 172,264 L 173,263 L 173,262 L 172,262 L 171,261 L 168,261 L 167,260 L 164,260 L 163,259 L 157,259 L 156,258 L 137,258 L 136,259 L 131,259 L 130,260 L 126,260 L 125,261 L 122,261 L 121,262 L 120,262 L 119,263 L 117,263 L 116,264 L 115,264 L 114,265 L 113,265 L 112,266 L 111,266 L 110,267 L 109,267 L 108,268 L 107,268 L 105,270 L 104,270 L 95,279 L 95,280 L 93,282 L 93,283 L 91,285 L 91,286 L 90,287 L 90,288 L 89,289 L 89,290 L 88,291 L 88,293 L 87,294 L 87,297 L 86,298 L 86,314 L 85,315 L 86,316 L 86,319 L 85,320 L 86,321 L 86,322 L 85,323 L 86,324 L 85,325 L 86,326 L 85,327 L 85,329 L 86,330 L 86,334 L 85,335 L 85,336 L 86,337 L 85,338 L 86,339 L 85,340 L 86,341 L 86,343 L 85,344 L 85,345 L 86,346 L 85,347 L 86,348 L 86,351 L 85,352 L 85,353 L 86,354 L 86,357 L 85,358 L 83,356 L 83,355 L 81,353 L 81,352 L 80,351 L 80,350 L 78,348 L 78,347 L 77,346 L 77,345 L 76,344 L 76,343 L 75,342 L 75,341 L 74,340 L 74,339 L 73,338 L 73,337 L 72,336 L 72,335 L 71,334 L 71,333 L 70,332 L 70,331 L 69,330 L 69,329 L 68,328 L 68,326 L 67,325 L 67,324 L 66,323 L 66,321 L 65,320 L 65,318 L 64,317 L 64,315 L 63,314 L 63,312 L 62,311 L 62,309 L 61,308 L 61,305 L 60,304 L 60,302 L 59,301 L 59,297 L 58,296 L 58,293 L 57,292 L 57,288 L 56,287 L 56,282 L 55,281 L 55,275 L 54,274 L 54,263 L 53,262 L 53,237 L 54,236 L 54,226 L 55,225 L 55,217 L 56,216 L 56,211 L 57,210 L 57,206 L 58,205 L 58,202 L 59,201 L 59,198 L 60,197 L 60,194 L 61,193 L 61,191 L 62,190 L 62,187 L 63,186 L 63,185 L 64,184 L 64,182 L 65,181 L 65,179 L 66,178 L 66,176 L 67,175 L 67,174 L 68,173 L 68,171 L 69,170 L 69,169 L 70,168 L 70,167 L 71,166 L 71,164 L 72,163 L 72,162 L 73,161 L 73,160 L 74,159 L 74,158 L 76,156 L 76,155 L 77,154 L 77,153 L 78,152 L 78,151 L 79,150 L 79,149 L 81,147 L 81,146 L 82,145 L 82,144 L 84,142 L 84,141 L 86,139 L 86,138 L 88,136 L 88,135 L 91,132 L 91,131 L 94,128 L 94,127 L 98,123 L 98,122 L 121,99 L 122,99 L 127,94 L 128,94 L 131,91 L 132,91 L 134,89 L 135,89 L 138,86 L 139,86 L 140,85 L 141,85 L 143,83 L 144,83 L 146,81 L 147,81 L 148,80 L 149,80 L 151,78 L 152,78 L 153,77 L 154,77 L 155,76 L 156,76 L 157,75 L 158,75 L 159,74 L 160,74 L 161,73 L 162,73 L 163,72 L 164,72 L 165,71 L 166,71 L 167,70 L 169,70 L 170,69 L 171,69 L 172,68 L 173,68 L 174,67 L 176,67 L 177,66 L 178,66 L 179,65 L 181,65 L 182,64 L 184,64 L 185,63 L 187,63 L 188,62 L 190,62 L 191,61 L 194,61 L 195,60 L 198,60 L 199,59 L 202,59 L 203,58 L 206,58 L 207,57 L 211,57 L 212,56 L 218,56 L 219,55 L 226,55 L 227,54 L 237,54 L 238,53 L 260,53 L 261,54 L 271,54 L 272,55 L 279,55 L 280,56 L 285,56 L 286,57 L 290,57 L 291,58 L 295,58 L 296,59 L 299,59 L 300,60 L 303,60 L 304,61 L 306,61 L 307,62 L 310,62 L 311,63 L 313,63 L 314,64 L 315,64 L 316,65 L 318,65 L 319,66 L 321,66 L 322,67 L 323,67 L 324,68 L 326,68 L 327,69 L 328,69 L 329,70 L 330,70 L 331,71 L 333,71 L 334,72 L 335,72 L 336,73 L 337,73 L 338,74 L 339,74 L 340,75 L 341,75 L 342,76 L 343,76 L 344,77 L 345,77 L 347,79 L 348,79 L 349,80 L 350,80 L 351,81 L 352,81 L 354,83 L 355,83 L 357,85 L 358,85 L 360,87 L 361,87 L 363,89 L 364,89 L 367,92 L 368,92 L 371,95 L 372,95 L 378,101 L 379,101 L 383,105 L 383,106 L 379,110 L 378,110 L 374,114 L 373,114 L 369,118 L 368,118 L 365,121 L 364,121 L 360,125 L 360,126 L 361,127 L 361,128 L 362,128 L 363,129 L 364,129 L 365,130 L 367,130 L 368,131 L 370,131 L 371,132 L 374,132 L 375,133 L 377,133 L 378,134 L 380,134 L 381,135 L 383,135 L 384,136 L 386,136 L 387,137 L 389,137 L 390,138 L 392,138 L 393,139 L 395,139 L 396,140 L 398,140 L 399,141 L 401,141 L 402,142 L 404,142 L 405,143 L 407,143 L 408,144 L 410,144 L 411,145 L 413,145 L 414,146 L 416,146 L 417,147 L 419,147 L 420,148 L 422,148 L 423,149 L 425,149 L 426,150 L 428,150 L 429,151 L 431,151 L 432,152 L 434,152 L 435,153 L 441,153 L 443,151 L 443,144 L 442,143 L 442,139 L 441,138 L 441,133 L 440,132 L 440,127 L 439,126 L 439,122 L 438,121 L 438,117 L 437,116 L 437,111 L 436,110 L 436,106 L 435,105 L 435,101 L 434,100 L 434,95 L 433,94 L 433,90 L 432,89 L 432,85 L 431,84 L 431,80 L 430,79 L 430,75 L 429,74 L 429,72 L 427,70 L 425,70 L 423,72 L 422,72 L 416,78 L 415,78 L 409,84 L 408,84 L 405,87 L 404,87 L 395,78 L 394,78 L 390,74 L 389,74 L 385,70 L 384,70 L 381,67 L 380,67 L 377,64 L 376,64 L 374,62 L 373,62 L 371,60 L 370,60 L 368,58 L 367,58 L 366,57 L 365,57 L 363,55 L 362,55 L 361,54 L 360,54 L 358,52 L 356,52 L 354,50 L 353,50 L 352,49 L 351,49 L 350,48 L 349,48 L 348,47 L 347,47 L 346,46 L 344,46 L 343,45 L 342,45 L 341,44 L 340,44 L 339,43 L 338,43 L 337,42 L 335,42 L 334,41 L 333,41 L 332,40 L 330,40 L 329,39 L 327,39 L 326,38 L 325,38 L 324,37 L 321,37 L 320,36 L 319,36 L 318,35 L 315,35 L 314,34 L 312,34 L 311,33 L 308,33 L 307,32 L 304,32 L 303,31 L 300,31 L 299,30 L 296,30 L 295,29 L 290,29 L 289,28 L 284,28 L 283,27 L 277,27 L 276,26 L 267,26 L 266,25 Z" fill="black" />
</svg>